HIERARCHY
ROOT Hips
{
	OFFSET 0.000000 0.000000 0.000000
	CHANNELS 6 Xposition Yposition Zposition Xrotation Yrotation Zrotation
	JOINT LeftUpLeg_virtual
	{
		OFFSET 0.000000 0.000000 0.000000
		CHANNELS 3 Xrotation Yrotation Zrotation
		JOINT LeftUpLeg
		{
			OFFSET 15.427100 -6.655098 0.678600
			CHANNELS 3 Xrotation Yrotation Zrotation
			JOINT LeftLeg
			{
				OFFSET 4.081073 -39.591068 13.024000
				CHANNELS 3 Xrotation Yrotation Zrotation
				JOINT LeftFoot
				{
					OFFSET -4.081074 -37.707932 -15.979700
					CHANNELS 3 Xrotation Yrotation Zrotation
					JOINT LeftToeBase
					{
						OFFSET 5.346399 -15.068900 20.645000
						CHANNELS 3 Xrotation Yrotation Zrotation
						JOINT LeftToe_End
						{
							OFFSET 2.754700 0.931300 11.300900
							CHANNELS 3 Xrotation Yrotation Zrotation
							End Site
							{
								OFFSET 0 0 0
							}
						}
					}
				}
			}
		}
	}
	JOINT RightUpLeg_virtual
	{
		OFFSET 0.000000 0.000000 0.000000
		CHANNELS 3 Xrotation Yrotation Zrotation
		JOINT RightUpLeg
		{
			OFFSET -15.569500 -6.655098 0.678600
			CHANNELS 3 Xrotation Yrotation Zrotation
			JOINT RightLeg
			{
				OFFSET -4.081825 -39.591045 13.023800
				CHANNELS 3 Xrotation Yrotation Zrotation
				JOINT RightFoot
				{
					OFFSET 4.081824 -37.707954 -15.979600
					CHANNELS 3 Xrotation Yrotation Zrotation
					JOINT RightToeBase
					{
						OFFSET -5.346400 -15.068900 20.645000
						CHANNELS 3 Xrotation Yrotation Zrotation
						JOINT RightToe_End
						{
							OFFSET -2.754700 0.931300 11.300900
							CHANNELS 3 Xrotation Yrotation Zrotation
							End Site
							{
								OFFSET 0 0 0
							}
						}
					}
				}
			}
		}
	}
	JOINT Spine_virtual
	{
		OFFSET 0.000000 0.000000 0.000000
		CHANNELS 3 Xrotation Yrotation Zrotation
		JOINT Spine
		{
			OFFSET -0.279200 12.230698 -2.892100
			CHANNELS 3 Xrotation Yrotation Zrotation
			JOINT Spine1
			{
				OFFSET -0.232667 10.192268 -1.242267
				CHANNELS 3 Xrotation Yrotation Zrotation
				JOINT Spine1_split
				{
					OFFSET -0.232667 10.192268 -1.242267
					CHANNELS 3 Xrotation Yrotation Zrotation
					JOINT Spine2
					{
						OFFSET -0.232667 10.192268 -1.242267
						CHANNELS 3 Xrotation Yrotation Zrotation
						JOINT Neck_virtual
						{
							OFFSET 0.000000 0.000000 0.000000
							CHANNELS 3 Xrotation Yrotation Zrotation
							JOINT Neck
							{
								OFFSET -0.418800 17.814194 8.416900
								CHANNELS 3 Xrotation Yrotation Zrotation
								JOINT Head
								{
									OFFSET 0.000000 7.031097 3.806800
									CHANNELS 3 Xrotation Yrotation Zrotation
									JOINT HeadTop_End
									{
										OFFSET 0.000000 24.646606 12.978600
										CHANNELS 3 Xrotation Yrotation Zrotation
										End Site
										{
											OFFSET 0 0 0
										}
									}
								}
							}
						}
						JOINT LeftShoulder_virtual
						{
							OFFSET 0.000000 0.000000 0.000000
							CHANNELS 3 Xrotation Yrotation Zrotation
							JOINT LeftShoulder
							{
								OFFSET 8.476499 7.247704 -3.868750
								CHANNELS 3 Xrotation Yrotation Zrotation
								JOINT LeftShoulder_split
								{
									OFFSET 8.476499 7.247704 -3.868750
									CHANNELS 3 Xrotation Yrotation Zrotation
									JOINT LeftArm
									{
										OFFSET 9.308998 -2.777710 0.208600
										CHANNELS 3 Xrotation Yrotation Zrotation
										JOINT LeftForeArm
										{
											OFFSET 29.972298 0.000000 0.000000
											CHANNELS 3 Xrotation Yrotation Zrotation
											JOINT LeftHand
											{
												OFFSET 26.026505 0.000000 0.000000
												CHANNELS 3 Xrotation Yrotation Zrotation
												End Site
												{
													OFFSET 0 0 0
												}
											}
										}
									}
								}
							}
						}
						JOINT RightShoulder_virtual
						{
							OFFSET 0.000000 0.000000 0.000000
							CHANNELS 3 Xrotation Yrotation Zrotation
							JOINT RightShoulder
							{
								OFFSET -7.570500 7.247704 -3.868750
								CHANNELS 3 Xrotation Yrotation Zrotation
								JOINT RightShoulder_split
								{
									OFFSET -7.570500 7.247704 -3.868750
									CHANNELS 3 Xrotation Yrotation Zrotation
									JOINT RightArm
									{
										OFFSET -9.308998 -2.777710 0.208500
										CHANNELS 3 Xrotation Yrotation Zrotation
										JOINT RightForeArm
										{
											OFFSET -29.972300 0.000000 0.000000
											CHANNELS 3 Xrotation Yrotation Zrotation
											JOINT RightHand
											{
												OFFSET -26.026505 0.000000 0.000000
												CHANNELS 3 Xrotation Yrotation Zrotation
												End Site
												{
													OFFSET 0 0 0
												}
											}
										}
									}
								}
							}
						}
					}
				}
			}
		}
	}
}
MOTION
Frames: 8
Frame Time: 0.03333333
-1.590915 90.784752 -7.836519 0.000000 0.000000 0.000000 4.047622 -84.234722 5.087494 -13.715213 23.240487 14.884630 24.846568 -7.842124 -2.898393 -12.100625 2.915137 -9.812807 -2.412067 -0.418044 -0.987400 0.000000 0.000000 0.000000 2.508784 -82.207187 2.835141 -9.716412 -15.067167 -11.926657 23.749258 11.605198 -0.380645 -14.924937 -7.668351 12.215972 4.959474 0.152056 -21.703754 0.000000 0.000000 0.000000 -17.185297 -81.656537 -16.191465 -6.097289 4.184376 3.147419 9.924728 -0.625935 2.082367 -0.022153 -0.069181 0.014039 0.000000 0.000000 0.000000 10.810093 1.408604 3.120536 -5.292352 11.523916 -3.044512 -4.103371 -37.404363 -8.391624 0.000000 0.000000 0.000000 9.906099 0.012171 2.243474 -0.056127 1.709242 -4.440814 8.674796 -4.861924 0.539861 37.125835 -78.149843 -27.418959 -3.177961 -13.899827 -0.591941 0.000000 0.000000 0.000000 10.313963 0.099651 3.045348 -9.763083 -1.796387 6.505856 4.477869 1.848750 2.596410 5.071339 32.589896 68.518825 -3.908795 20.693603 -6.828043 0.000000 0.000000 0.000000 
-1.659433 90.808029 -7.569296 0.000000 0.000000 0.000000 3.026240 -84.219511 4.117620 -13.712364 22.506486 14.926282 24.642219 -7.740872 -2.980578 -11.526051 3.307978 -9.533244 -2.453126 -0.370946 -1.185457 0.000000 0.000000 0.000000 3.597322 -82.185228 3.775539 -9.695219 -14.992187 -11.944328 23.848551 11.572939 -0.455392 -14.811552 -7.522623 12.339564 4.591008 0.217606 -21.653402 0.000000 0.000000 0.000000 -17.392759 -81.753949 -16.394754 -5.808515 4.090524 3.024236 9.535231 -0.616214 2.137427 -0.010102 -0.127749 0.058087 0.000000 0.000000 0.000000 10.818007 1.485138 3.121411 -5.384617 11.510067 -2.959823 -4.916425 -37.221464 -8.829395 0.000000 0.000000 0.000000 9.933338 0.030908 2.326233 0.008114 1.508067 -4.365804 8.799121 -5.098916 -0.108547 38.641358 -78.289821 -25.867793 -3.477432 -13.947813 -0.838417 0.000000 0.000000 0.000000 10.244941 0.138330 3.141169 -9.681979 -1.753989 6.133915 4.952176 2.076430 2.333183 5.113591 32.708625 68.496798 -3.708566 20.518032 -6.957092 0.000000 0.000000 0.000000 
-1.721947 90.952606 -7.272844 0.000000 0.000000 0.000000 2.906731 -84.328330 4.021163 -13.760175 21.643420 14.929327 24.480286 -7.667536 -3.065855 -10.906773 3.828876 -9.356275 -2.843044 -0.322371 -1.423744 0.000000 0.000000 0.000000 4.675940 -82.273098 4.721646 -9.458869 -15.099431 -11.767825 23.756072 11.446508 -0.670052 -14.705519 -7.303824 12.527706 4.227168 0.281880 -21.368238 0.000000 0.000000 0.000000 -16.622263 -81.863922 -15.612148 -5.411587 3.940765 2.970187 9.035534 -0.565773 2.113982 0.002280 -0.167662 0.078861 0.000000 0.000000 0.000000 10.771355 1.596927 3.078847 -5.368025 11.581802 -2.804932 -5.955049 -36.807995 -9.378422 0.000000 0.000000 0.000000 9.969579 0.090613 2.387152 0.201068 1.390280 -4.173348 8.559871 -4.824337 -1.186107 43.460238 -78.385464 -21.093335 -3.320286 -14.573167 -0.671294 0.000000 0.000000 0.000000 10.106039 0.186620 3.171736 -9.486136 -1.574617 5.626155 5.414627 2.259776 2.102159 5.036186 32.256009 69.032736 -3.006500 20.969622 -7.477526 0.000000 0.000000 0.000000 
-1.718253 91.129395 -7.003859 0.000000 0.000000 0.000000 3.626024 -84.541520 4.749403 -13.975569 20.849397 14.962617 24.508729 -7.653107 -3.184731 -10.238576 4.446538 -9.394140 -3.406626 -0.277194 -1.607766 0.000000 0.000000 0.000000 5.641848 -82.499779 5.629025 -9.210232 -15.357861 -11.526665 23.558451 11.239288 -0.964237 -14.582068 -7.068100 12.781254 4.072710 0.313342 -20.889287 0.000000 0.000000 0.000000 -15.118605 -82.056609 -14.125077 -4.915800 3.762104 2.941080 8.467501 -0.483620 2.036581 0.021376 -0.222505 0.062422 0.000000 0.000000 0.000000 10.674512 1.726620 3.023115 -5.233061 11.726035 -2.610744 -7.051731 -36.236708 -9.919111 0.000000 0.000000 0.000000 9.968722 0.184403 2.430899 0.487832 1.407150 -3.976144 8.014595 -4.181184 -2.293047 50.700132 -78.375813 -13.960918 -2.771794 -15.364036 -0.172727 0.000000 0.000000 0.000000 9.905047 0.243725 3.165436 -9.213433 -1.228092 5.077864 5.842712 2.277150 2.069048 4.796202 31.341378 69.949484 -1.877149 21.858975 -8.331878 0.000000 0.000000 0.000000 
-1.570133 91.294563 -6.768820 0.000000 0.000000 0.000000 4.988969 -84.799298 6.112523 -14.424666 20.158082 15.124959 24.641169 -7.725530 -3.420655 -9.443524 5.103419 -9.735344 -3.900992 -0.260683 -1.613995 0.000000 0.000000 0.000000 6.698379 -82.761040 6.678573 -9.018372 -15.702231 -11.300362 23.290737 10.982760 -1.268601 -14.438465 -6.779864 13.086402 3.981269 0.368476 -20.362379 0.000000 0.000000 0.000000 -13.126906 -82.241393 -12.186429 -4.308757 3.572757 2.870804 7.871317 -0.374130 1.936145 0.069252 -0.291266 0.040746 0.000000 0.000000 0.000000 10.529653 1.860693 2.985515 -5.089727 11.911332 -2.388150 -8.246848 -35.514395 -10.435435 0.000000 0.000000 0.000000 9.902989 0.302200 2.461794 0.810614 1.600195 -3.896515 7.188497 -3.613606 -3.284041 58.482067 -78.261858 -6.204341 -2.036286 -16.192177 0.456902 0.000000 0.000000 0.000000 9.640436 0.310883 3.159995 -8.907293 -0.718104 4.662868 6.062797 2.249726 2.130187 4.432775 30.056200 70.971184 -0.449995 22.985975 -9.391600 0.000000 0.000000 0.000000 
-1.268643 91.446960 -6.522345 0.000000 0.000000 0.000000 6.347227 -85.018035 7.443967 -14.853990 19.549617 15.339755 24.718229 -7.802169 -3.842856 -8.583612 5.821710 -10.234185 -4.268560 -0.292355 -1.345653 0.000000 0.000000 0.000000 7.438827 -83.008464 7.414610 -8.954949 -16.064304 -11.127731 23.004914 10.660702 -1.514393 -14.269019 -6.407455 13.304333 3.819153 0.504494 -19.929840 0.000000 0.000000 0.000000 -11.333512 -82.412919 -10.503487 -3.568798 3.390108 2.720446 7.286960 -0.233853 1.838875 0.114811 -0.343365 0.021407 0.000000 0.000000 0.000000 10.334999 1.987281 2.985103 -5.041676 12.094833 -2.154406 -9.600901 -34.660550 -10.964606 0.000000 0.000000 0.000000 9.719215 0.436350 2.470916 1.101862 1.960785 -4.059782 6.354701 -3.539025 -3.957526 64.094755 -77.991389 -0.496744 -1.363130 -16.969909 0.997105 0.000000 0.000000 0.000000 9.297214 0.392738 3.170105 -8.615329 -0.078508 4.455770 6.137551 2.244662 2.347153 4.037607 28.467334 71.786736 1.063840 24.140177 -10.481511 0.000000 0.000000 0.000000 
-0.861712 91.598709 -6.399572 0.000000 0.000000 0.000000 6.957139 -85.209847 7.996575 -15.142253 18.924716 15.619302 24.562337 -7.771891 -4.378822 -7.796663 6.660050 -10.767118 -4.688582 -0.375456 -0.702481 0.000000 0.000000 0.000000 7.582167 -83.278065 7.515388 -9.120295 -16.477579 -11.037697 22.899121 10.235043 -1.622661 -14.026654 -6.005130 13.283459 3.732605 0.720215 -19.682674 0.000000 0.000000 0.000000 -10.182946 -82.583858 -9.502784 -2.689214 3.234059 2.510067 6.746554 -0.061136 1.758645 0.162435 -0.356850 0.006031 0.000000 0.000000 0.000000 10.135839 2.098541 3.016853 -5.163961 12.230123 -1.955667 -11.215328 -33.672115 -11.593164 0.000000 0.000000 0.000000 9.414140 0.576959 2.449465 1.343441 2.518142 -4.514616 5.770842 -4.169506 -4.028277 64.866409 -77.585191 0.655287 -0.897261 -17.901366 1.326342 0.000000 0.000000 0.000000 8.900700 0.485968 3.186363 -8.394747 0.537032 4.367600 6.227793 2.650322 2.434937 3.701440 26.659292 72.279370 2.488565 25.434217 -11.448813 0.000000 0.000000 0.000000 
-0.329049 91.735748 -6.428991 0.000000 0.000000 0.000000 6.669057 -85.372720 7.613683 -15.226180 18.136932 15.814782 24.145463 -7.412468 -4.993959 -7.262842 7.677301 -11.021989 -4.932659 -0.500203 0.058036 0.000000 0.000000 0.000000 6.872242 -83.619547 6.756318 -9.647337 -16.937500 -11.069126 23.193680 9.719118 -1.533740 -13.660745 -5.575620 13.003814 3.717246 1.014239 -19.658809 0.000000 0.000000 0.000000 -9.704457 -82.752803 -9.144324 -1.684053 3.116670 2.276902 6.282761 0.132879 1.676011 0.188199 -0.323841 -0.004431 0.000000 0.000000 0.000000 9.976410 2.184666 3.040618 -5.509455 12.302351 -1.830085 -13.147115 -32.564341 -12.411125 0.000000 0.000000 0.000000 9.043931 0.703750 2.376678 1.506430 3.239558 -5.185571 5.486447 -5.137545 -3.521855 59.273181 -76.836008 -4.118473 -0.709012 -19.577764 1.382847 0.000000 0.000000 0.000000 8.487176 0.573580 3.175889 -8.241611 0.963488 4.295016 6.281667 3.215632 2.408958 3.454319 24.822724 72.476107 3.707139 27.272235 -12.160539 0.000000 0.000000 0.000000 
